<svg width="65" height="63" viewBox="0 0 65 63" fill="none" xmlns="http://www.w3.org/2000/svg">
<path fill-rule="evenodd" clip-rule="evenodd" d="M25 52.0015C25 54.7645 22.7607 57.0031 20 57.0031C17.2393 57.0031 15 54.7645 15 52.0015C15 49.2385 17.2393 47 20 47C22.7607 47 25 49.2385 25 52.0015ZM29.6592 54.6C28.5153 58.8639 24.6242 62.0031 20 62.0031C15.3758 62.0031 11.4847 58.8639 10.3408 54.6H2.50995C1.12924 54.6 0.00994873 53.4807 0.00994873 52.1C0.00994873 50.7193 1.12924 49.6 2.50995 49.6H10.2901C11.3655 45.2362 15.3049 42 20 42C24.6951 42 28.6345 45.2362 29.7099 49.6H62.5C63.8807 49.6 65 50.7193 65 52.1C65 53.4807 63.8807 54.6 62.5 54.6H29.6592Z" fill="#FF8C4C"/>
<path fill-rule="evenodd" clip-rule="evenodd" d="M24.9901 10.0015C24.9901 12.7645 22.7508 15.0031 19.9901 15.0031C17.2293 15.0031 14.9901 12.7645 14.9901 10.0015C14.9901 7.23854 17.2293 5 19.9901 5C22.7508 5 24.9901 7.23854 24.9901 10.0015ZM29.6492 12.6C28.5054 16.8639 24.6143 20.0031 19.9901 20.0031C15.3658 20.0031 11.4747 16.8639 10.3309 12.6H2.5C1.11929 12.6 0 11.4807 0 10.1C0 8.71929 1.11929 7.60001 2.5 7.60001H10.2802C11.3555 3.23621 15.2949 0 19.9901 0C24.6852 0 28.6246 3.23621 29.6999 7.60001H62.4901C63.8708 7.60001 64.9901 8.71929 64.9901 10.1C64.9901 11.4807 63.8708 12.6 62.4901 12.6H29.6492Z" fill="#FF8C4C"/>
<path fill-rule="evenodd" clip-rule="evenodd" d="M50 31.0015C50 33.7645 47.7607 36.0031 45 36.0031C42.2393 36.0031 40 33.7645 40 31.0015C40 28.2385 42.2393 26 45 26C47.7607 26 50 28.2385 50 31.0015ZM54.6592 33.6C53.5153 37.8639 49.6242 41.0031 45 41.0031C40.3758 41.0031 36.4847 37.8639 35.3408 33.6H2.5C1.11929 33.6 0 32.4807 0 31.1C0 29.7193 1.11929 28.6 2.5 28.6H35.2901C36.3655 24.2362 40.3049 21 45 21C49.7462 21 53.7201 24.307 54.7439 28.7428C54.7329 28.6951 54.7216 28.6475 54.7099 28.6H62.4901C63.8708 28.6 64.9901 29.7193 64.9901 31.1C64.9901 32.4807 63.8708 33.6 62.4901 33.6H54.6592Z" fill="#FF8C4C"/>
</svg>
